<?xml version="1.0" ?><!DOCTYPE svg  PUBLIC '-//W3C//DTD SVG 1.1//EN'  'http://www.w3.org/Graphics/SVG/1.1/DTD/svg11.dtd'><svg enable-background="new 0 0 512 511.999" height="511.999px" id="Layer_1" version="1.1" viewBox="0 0 512 511.999" width="512px" xml:space="preserve" xmlns="http://www.w3.org/2000/svg" xmlns:xlink="http://www.w3.org/1999/xlink"><g><path d="M-1346.383,159.376c0,0-84.75-77.878-127.125-121.398s-86.468-40.084-86.468-40.084   s-44.093-3.437-86.468,40.084s-127.125,121.398-127.125,121.398l-10.307,37.794v312.659h447.801V197.17L-1346.383,159.376z" fill="#D89932"/><path d="M-1372.724,344.182c0,7.18-5.82,13-13,13h-339.342c-7.18,0-13-5.82-13-13V105.95c0-7.18,5.82-13,13-13   h339.342c7.18,0,13,5.82,13,13V344.182z" fill="#E2E5E7"/><polygon fill="#2D404E" opacity="0.07" points="-1626.592,328.495 -1610.945,327.732 -1744.555,202.515 -1783.876,197.17  "/><polygon fill="#2D404E" opacity="0.07" points="-1493.454,328.495 -1509.101,327.732 -1375.491,202.515 -1336.17,197.17  "/><polygon fill="#F2B643" points="-1783.876,197.17 -1783.876,509.828 -1626.464,328.302 -1746.082,205.569  "/><polygon fill="#F2B643" points="-1336.17,197.17 -1336.17,509.828 -1493.581,328.302 -1373.964,205.569  "/><polygon fill="#D89932" opacity="0.54" points="-1783.876,509.828 -1783.876,472.035 -1631.891,322.734 -1626.464,328.302  "/><polygon fill="#D89932" opacity="0.54" points="-1336.17,509.828 -1336.17,472.035 -1488.154,322.734 -1493.581,328.302  "/><path d="M-1347.29,473.752c0,0-120.859-126.551-131.796-136.858c-10.938-10.307-19.688-9.161-19.688-9.161h-61.249   h-61.25c0,0-8.75-1.146-19.688,9.161c-10.938,10.308-131.795,136.858-131.795,136.858l-10.392,36.076h223.125h223.124   L-1347.29,473.752z" fill="#F2B643"/><g><path d="M-1683.842,224.67l29.855-55.562l12.741,30.735c0,0-0.289-13.965,9.309-13.743s16.927,38.57,16.927,38.57    H-1683.842z" fill="#D1D5D5"/><circle cx="-1635.46" cy="175.194" fill="#D1D5D5" r="6.087"/></g><path d="M-1442.323,181.137c0,3.162-2.563,5.727-5.727,5.727h-112.549c-3.163,0-5.727-2.564-5.727-5.727v-0.216   c0-3.162,2.564-5.727,5.727-5.727h112.549c3.163,0,5.727,2.564,5.727,5.727V181.137z" fill="#D1D5D5"/><path d="M-1442.323,203.112c0,3.162-2.563,5.727-5.727,5.727h-112.549c-3.163,0-5.727-2.564-5.727-5.727v-0.216   c0-3.162,2.564-5.727,5.727-5.727h112.549c3.163,0,5.727,2.564,5.727,5.727V203.112z" fill="#D1D5D5"/><path d="M-1442.323,225.089c0,3.162-2.563,5.726-5.727,5.726h-112.549c-3.163,0-5.727-2.563-5.727-5.726v-0.216   c0-3.163,2.564-5.727,5.727-5.727h112.549c3.163,0,5.727,2.563,5.727,5.727V225.089z" fill="#D1D5D5"/><g><defs><path d="M-1372.724,344.182c0,7.18-5.82,13-13,13h-339.342c-7.18,0-13-5.82-13-13V105.95c0-7.18,5.82-13,13-13     h339.342c7.18,0,13,5.82,13,13V344.182z" id="SVGID_1_"/></defs><clipPath id="SVGID_2_"><use overflow="visible" xlink:href="#SVGID_1_"/></clipPath><g clip-path="url(#SVGID_2_)"><polygon fill="#DF584C" points="-1649.425,92.95 -1663.348,118.528 -1641.246,118.528 -1627.323,92.95    "/><polygon fill="#E2E5E7" points="-1671.528,92.95 -1685.45,118.528 -1663.348,118.528 -1649.425,92.95    "/><polygon fill="#E2E5E7" points="-1627.323,92.95 -1641.246,118.528 -1619.143,118.528 -1605.221,92.95    "/><polygon fill="#E2E5E7" points="-1583.118,92.95 -1597.041,118.528 -1574.938,118.528 -1561.016,92.95    "/><polygon fill="#DF584C" points="-1738.065,92.95 -1738.065,118.528 -1729.655,118.528 -1715.732,92.95    "/><polygon fill="#E2E5E7" points="-1715.732,92.95 -1729.655,118.528 -1707.553,118.528 -1693.63,92.95    "/><polygon fill="#E2E5E7" points="-1450.504,92.95 -1464.426,118.528 -1442.323,118.528 -1428.401,92.95    "/><polygon fill="#E2E5E7" points="-1406.299,92.95 -1420.222,118.528 -1398.119,118.528 -1384.196,92.95    "/><polygon fill="#DF584C" points="-1561.016,92.95 -1574.938,118.528 -1552.836,118.528 -1538.913,92.95    "/><polygon fill="#DF584C" points="-1384.196,92.95 -1398.119,118.528 -1372.724,118.528 -1372.724,92.95    "/><polygon fill="#DF584C" points="-1472.606,92.95 -1486.528,118.528 -1464.426,118.528 -1450.504,92.95    "/><polygon fill="#E2E5E7" points="-1538.913,92.95 -1552.836,118.528 -1530.733,118.528 -1516.811,92.95    "/><g><polygon fill="#2D404E" points="-1605.221,92.95 -1619.143,118.528 -1597.041,118.528 -1583.118,92.95     "/><polygon fill="#2D404E" points="-1693.63,92.95 -1707.553,118.528 -1685.45,118.528 -1671.528,92.95     "/><polygon fill="#2D404E" points="-1428.401,92.95 -1442.323,118.528 -1420.222,118.528 -1406.299,92.95     "/><polygon fill="#2D404E" points="-1516.811,92.95 -1530.733,118.528 -1508.631,118.528 -1494.709,92.95     "/></g><polygon fill="#E2E5E7" points="-1494.709,92.95 -1508.631,118.528 -1486.528,118.528 -1472.606,92.95    "/></g></g></g><g><g><path d="M-1105.826,197.528c0,3.035-0.911,5.496-2.035,5.496h-64.187c-1.125,0-2.037-2.461-2.037-5.496l0,0    c0-3.036,0.912-5.497,2.037-5.497h64.187C-1106.737,192.031-1105.826,194.492-1105.826,197.528L-1105.826,197.528z" fill="#D1D5D5"/><path d="M-1105.826,225.679c0,3.035-1.207,5.496-2.697,5.496h-85.062c-1.49,0-2.697-2.461-2.697-5.496l0,0    c0-3.035,1.207-5.497,2.697-5.497h85.062C-1107.033,220.182-1105.826,222.644-1105.826,225.679L-1105.826,225.679z" fill="#D1D5D5"/><path d="M-1105.826,310.131c0-3.036-0.911-5.498-2.035-5.498h-64.187c-1.125,0-2.037,2.462-2.037,5.498l0,0    c0,3.033,0.912,5.495,2.037,5.495h64.187C-1106.737,315.626-1105.826,313.164-1105.826,310.131L-1105.826,310.131z" fill="#D1D5D5"/><path d="M-1105.826,281.979c0-3.035-1.207-5.497-2.697-5.497h-85.062c-1.49,0-2.697,2.462-2.697,5.497l0,0    c0,3.033,1.207,5.496,2.697,5.496h85.062C-1107.033,287.476-1105.826,285.013-1105.826,281.979L-1105.826,281.979z" fill="#D1D5D5"/><path d="M-1105.826,253.829c0,3.035-1.458,5.498-3.254,5.498h-102.641c-1.797,0-3.255-2.463-3.255-5.498l0,0    c0-3.035,1.458-5.496,3.255-5.496h102.641C-1107.284,248.333-1105.826,250.794-1105.826,253.829L-1105.826,253.829z" fill="#D1D5D5"/></g><g><path d="M-702.976,366.638c0,12.15-9.85,22-22,22h-342.277c-12.15,0-22-9.85-22-22V141.021c0-12.15,9.85-22,22-22    h342.277c12.15,0,22,9.85,22,22V366.638z" fill="#E2E5E7"/><g><path d="M-734.729,313.742c0,2.448-2.711,4.434-6.056,4.434h-118.997c-3.345,0-6.056-1.985-6.056-4.434v-0.168     c0-2.446,2.711-4.431,6.056-4.431h118.997c3.345,0,6.056,1.984,6.056,4.431V313.742z" fill="#D1D5D5"/><path d="M-734.729,330.754c0,2.45-2.711,4.434-6.056,4.434h-118.997c-3.345,0-6.056-1.983-6.056-4.434v-0.165     c0-2.449,2.711-4.434,6.056-4.434h118.997c3.345,0,6.056,1.984,6.056,4.434V330.754z" fill="#D1D5D5"/><path d="M-734.729,347.769c0,2.447-2.711,4.431-6.056,4.431h-118.997c-3.345,0-6.056-1.983-6.056-4.431v-0.167     c0-2.45,2.711-4.435,6.056-4.435h118.997c3.345,0,6.056,1.984,6.056,4.435V347.769z" fill="#D1D5D5"/></g><g><defs><path d="M-702.976,366.638c0,12.15-9.85,22-22,22h-342.277c-12.15,0-22-9.85-22-22V141.021c0-12.15,9.85-22,22-22      h342.277c12.15,0,22,9.85,22,22V366.638z" id="SVGID_3_"/></defs><clipPath id="SVGID_4_"><use overflow="visible" xlink:href="#SVGID_3_"/></clipPath><g clip-path="url(#SVGID_4_)"><g><polygon fill="#DF584C" points="-995.533,119.021 -1010.255,132.021 -986.884,132.021 -972.164,119.021      "/><polygon fill="#E2E5E7" points="-1018.902,119.021 -1033.622,132.021 -1010.255,132.021 -995.533,119.021      "/><polygon fill="#E2E5E7" points="-972.164,119.021 -986.884,132.021 -963.516,132.021 -948.795,119.021      "/><polygon fill="#E2E5E7" points="-925.426,119.021 -940.146,132.021 -916.778,132.021 -902.058,119.021      "/><polygon fill="#DF584C" points="-1089.253,119.021 -1089.253,132.021 -1080.36,132.021 -1065.64,119.021      "/><polygon fill="#E2E5E7" points="-1065.64,119.021 -1080.36,132.021 -1056.991,132.021 -1042.271,119.021      "/><polygon fill="#E2E5E7" points="-785.213,119.021 -799.933,132.021 -776.562,132.021 -761.845,119.021      "/><polygon fill="#E2E5E7" points="-738.475,119.021 -753.195,132.021 -729.826,132.021 -715.105,119.021      "/><polygon fill="#DF584C" points="-902.058,119.021 -916.778,132.021 -893.409,132.021 -878.688,119.021      "/><polygon fill="#DF584C" points="-715.105,119.021 -729.826,132.021 -702.976,132.021 -702.976,119.021      "/><polygon fill="#DF584C" points="-808.582,119.021 -823.302,132.021 -799.933,132.021 -785.213,119.021      "/><polygon fill="#E2E5E7" points="-878.688,119.021 -893.409,132.021 -870.039,132.021 -855.318,119.021      "/><g><polygon fill="#2D404E" points="-948.795,119.021 -963.516,132.021 -940.146,132.021 -925.426,119.021       "/><polygon fill="#2D404E" points="-1042.271,119.021 -1056.991,132.021 -1033.622,132.021 -1018.902,119.021       "/><polygon fill="#2D404E" points="-761.845,119.021 -776.562,132.021 -753.195,132.021 -738.475,119.021       "/><polygon fill="#2D404E" points="-855.318,119.021 -870.039,132.021 -846.671,132.021 -831.951,119.021       "/></g><polygon fill="#E2E5E7" points="-831.951,119.021 -846.671,132.021 -823.302,132.021 -808.582,119.021      "/></g><g><polygon fill="#DF584C" points="-1076.253,341.831 -1089.253,353.044 -1089.253,335.245 -1076.253,324.034      "/><polygon fill="#E2E5E7" points="-1076.253,359.63 -1089.253,370.841 -1089.253,353.044 -1076.253,341.831      "/><polygon fill="#E2E5E7" points="-1076.253,324.034 -1089.253,335.245 -1089.253,317.448 -1076.253,306.237      "/><polygon fill="#E2E5E7" points="-1076.253,288.438 -1089.253,299.649 -1089.253,281.853 -1076.253,270.642      "/><polygon fill="#E2E5E7" points="-1076.253,181.652 -1089.253,192.862 -1089.253,175.065 -1076.253,163.854      "/><polygon fill="#E2E5E7" points="-1076.253,146.056 -1089.253,157.268 -1089.253,139.47 -1076.253,128.258      "/><polygon fill="#DF584C" points="-1076.253,270.642 -1089.253,281.853 -1089.253,264.054 -1076.253,252.843      "/><polygon fill="#DF584C" points="-1076.253,128.258 -1089.253,139.47 -1089.253,119.021 -1076.253,119.021      "/><polygon fill="#DF584C" points="-1076.253,199.451 -1089.253,210.661 -1089.253,192.862 -1076.253,181.652      "/><polygon fill="#E2E5E7" points="-1076.253,252.843 -1089.253,264.054 -1089.253,246.258 -1076.253,235.045      "/><g><polygon fill="#2D404E" points="-1076.253,306.237 -1089.253,317.448 -1089.253,299.649 -1076.253,288.438       "/><polygon fill="#2D404E" points="-1076.253,388.64 -1089.253,388.642 -1089.253,370.841 -1076.253,359.63       "/><polygon fill="#2D404E" points="-1076.253,163.854 -1089.253,175.065 -1089.253,157.268 -1076.253,146.056       "/><polygon fill="#2D404E" points="-1076.253,235.045 -1089.253,246.258 -1089.253,228.458 -1076.253,217.248       "/></g><polygon fill="#E2E5E7" points="-1076.253,217.248 -1089.253,228.458 -1089.253,210.661 -1076.253,199.451      "/></g><g><polygon fill="#DF584C" points="-992.397,388.638 -1006.961,375.638 -983.841,375.638 -969.278,388.638      "/><polygon fill="#E2E5E7" points="-1015.516,388.638 -1030.078,375.638 -1006.961,375.638 -992.397,388.638      "/><polygon fill="#E2E5E7" points="-969.278,388.638 -983.841,375.638 -960.723,375.638 -946.16,388.638      "/><polygon fill="#E2E5E7" points="-923.041,388.638 -937.604,375.638 -914.486,375.638 -899.924,388.638      "/><polygon fill="#DF584C" points="-1089.253,388.638 -1089.253,375.638 -1076.315,375.638 -1061.752,388.638      "/><polygon fill="#E2E5E7" points="-784.331,388.638 -798.894,375.638 -775.773,375.638 -761.214,388.638      "/><polygon fill="#E2E5E7" points="-738.094,388.638 -752.657,375.638 -729.538,375.638 -714.976,388.638      "/><polygon fill="#DF584C" points="-899.924,388.638 -914.486,375.638 -891.368,375.638 -876.805,388.638      "/><polygon fill="#DF584C" points="-714.976,388.638 -729.538,375.638 -702.976,375.638 -702.976,388.638      "/><polygon fill="#DF584C" points="-807.45,388.638 -822.012,375.638 -798.894,375.638 -784.331,388.638      "/><polygon fill="#E2E5E7" points="-876.805,388.638 -891.368,375.638 -868.248,375.638 -853.686,388.638      "/><g><polygon fill="#2D404E" points="-946.16,388.638 -960.723,375.638 -937.604,375.638 -923.041,388.638       "/><polygon fill="#2D404E" points="-1038.634,388.638 -1053.196,375.638 -1030.078,375.638 -1015.516,388.638       "/><polygon fill="#2D404E" points="-761.214,388.638 -775.773,375.638 -752.657,375.638 -738.094,388.638       "/><polygon fill="#2D404E" points="-853.686,388.638 -868.248,375.638 -845.131,375.638 -830.568,388.638       "/></g><polygon fill="#E2E5E7" points="-830.568,388.638 -845.131,375.638 -822.012,375.638 -807.45,388.638      "/></g><g><polygon fill="#DF584C" points="-715.976,340.951 -702.976,351.792 -702.976,334.583 -715.976,323.744      "/><polygon fill="#E2E5E7" points="-715.976,358.159 -702.976,369 -702.976,351.792 -715.976,340.951      "/><polygon fill="#E2E5E7" points="-715.976,323.744 -702.976,334.583 -702.976,317.376 -715.976,306.536      "/><polygon fill="#E2E5E7" points="-715.976,289.326 -702.976,300.167 -702.976,282.959 -715.976,272.119      "/><polygon fill="#E2E5E7" points="-715.976,186.078 -702.976,196.917 -702.976,179.71 -715.976,168.87      "/><polygon fill="#E2E5E7" points="-715.976,151.661 -702.976,162.501 -702.976,145.294 -715.976,134.453      "/><polygon fill="#DF584C" points="-715.976,272.119 -702.976,282.959 -702.976,265.748 -715.976,254.911      "/><polygon fill="#DF584C" points="-715.976,134.453 -702.976,145.294 -702.976,125.521 -715.976,125.521      "/><polygon fill="#DF584C" points="-715.976,203.288 -702.976,214.126 -702.976,196.917 -715.976,186.078      "/><polygon fill="#E2E5E7" points="-715.976,254.911 -702.976,265.748 -702.976,248.544 -715.976,237.703      "/><g><polygon fill="#2D404E" points="-715.976,306.536 -702.976,317.376 -702.976,300.167 -715.976,289.326       "/><polygon fill="#2D404E" points="-715.976,386.209 -702.976,386.211 -702.976,369 -715.976,358.159       "/><polygon fill="#2D404E" points="-715.976,168.87 -702.976,179.71 -702.976,162.501 -715.976,151.661       "/><polygon fill="#2D404E" points="-715.976,237.703 -702.976,248.544 -702.976,231.334 -715.976,220.496       "/></g><polygon fill="#E2E5E7" points="-715.976,220.496 -702.976,231.334 -702.976,214.126 -715.976,203.288      "/></g></g></g><path d="M-740.396,216.88c0,6.272-5.1,11.357-11.391,11.357h-40.34c-6.291,0-11.391-5.085-11.391-11.357v-49.697    c0-6.272,5.1-11.357,11.391-11.357h40.34c6.291,0,11.391,5.085,11.391,11.357V216.88z" fill="#D1D5D5"/></g></g><g><g><path d="M-492.434,189.952c67.727,0,122.628,45.368,122.628,101.333c0,40.287-28.451,75.082-69.657,91.414    c1.239,6.178,9.214,25.643,21.498,38.982c0,0-42.848-13.818-62.677-31.584c-6.297,0.824-10.992,1.215-17.567,1.215    c-67.726,0-116.853-44.064-116.853-100.027C-615.062,235.32-560.159,189.952-492.434,189.952z" fill="#2D404E"/><path d="M-417.965,421.681c-12.284-13.34-20.259-32.805-21.498-38.982c41.206-16.332,69.657-51.127,69.657-91.414    c0-55.964-54.901-101.333-122.628-101.333c0,0,53.185,2.113,85.15,36.656c31.965,34.543,35.211,70.51,15.251,105.834    c-19.962,35.322-59.505,45.113-59.505,45.113S-446.467,406.679-417.965,421.681z" fill="#253744"/><g><g><circle cx="-494.002" cy="290.091" fill="#253744" r="17.5"/><circle cx="-495.193" cy="290.091" fill="#E2E5E7" r="16.309"/></g><g><circle cx="-543.506" cy="290.091" fill="#253744" r="17.5"/><circle cx="-544.697" cy="290.091" fill="#E2E5E7" r="16.309"/></g></g><path d="M-369.806,291.284c0-38.913-26.542-72.702-65.483-89.681l-115.728,179.658    c16.564,6.116,24.916,8.818,50.302,9.957c6.568,0.295,13.776-0.297,20.073-1.121c19.829,17.766,62.677,31.584,62.677,31.584    c-12.284-13.34-20.259-32.805-21.498-38.982C-398.257,366.366-369.806,331.571-369.806,291.284z" fill="#253744" opacity="0.52"/></g><path d="M-435.289,201.603c0,0-12.161,35.092-0.493,68.162c11.668,33.07,47.123,65.557,52.942,67.031l5.923-11.424   l-55.896-122.654L-435.289,201.603z" fill="#1D2F3A"/><g><path d="M-269.421,85.979c-91.88,0-166.361,61.547-166.361,137.47c0,54.654,38.599,101.857,94.498,124.013    c-1.681,8.383-6.977,25.127-23.642,43.221c0,0,42.387-7.371,69.287-31.469c8.542,1.117,17.296,1.705,26.218,1.705    c91.877,0,166.359-61.549,166.359-137.47C-103.062,147.526-177.544,85.979-269.421,85.979z" fill="#EB8923"/><path d="M-364.926,390.683c16.665-18.094,21.961-34.838,23.642-43.221    c-55.899-22.156-94.498-69.359-94.498-124.013c0-75.923,74.481-137.47,166.361-137.47c0,0-72.152,2.868-115.518,49.729    c-43.364,46.861-47.77,95.655-20.689,143.575c27.08,47.922,80.725,61.203,80.725,61.203S-326.26,370.333-364.926,390.683z" fill="#D27228"/><g><g><circle cx="-334.452" cy="221.829" fill="#D27228" r="23.741"/><circle cx="-332.837" cy="221.829" fill="#E2E5E7" r="22.126"/></g><g><circle cx="-267.294" cy="221.829" fill="#D27228" r="23.741"/><circle cx="-265.679" cy="221.829" fill="#E2E5E7" r="22.126"/></g><g><circle cx="-200.136" cy="221.829" fill="#D27228" r="23.741"/><circle cx="-198.521" cy="221.829" fill="#E2E5E7" r="22.125"/></g></g></g></g><g><g><polygon fill="#C6CBCB" points="136.046,405.657 49.987,432.978 51.849,439.089 137.907,411.765   "/><polygon fill="#C6CBCB" points="139.896,418.292 53.849,445.657 55.899,452.392 141.96,425.067   "/><polygon fill="#C6CBCB" points="131.905,392.062 45.849,419.384 48.065,426.665 134.122,399.341   "/><path d="M106.651,372.353l-51.223,14.998c-5.748,1.682-10.068,5.811-11.629,10.488l76.908-23.533    C117.134,371.698,111.923,370.812,106.651,372.353z" fill="#C6CBCB"/><path d="M125.337,380.048l-81.482,25.871c-0.676,2.189-0.742,4.48-0.07,6.691l0.15,0.488l86.023-27.316    C129.101,383.411,127.478,381.46,125.337,380.048z" fill="#C6CBCB"/><path d="M77.888,510.374c3.76,1.801,8.594,2.195,13.416,0.727l54.295-16.533c5.359-1.633,9.451-5.186,11.379-9.305    L77.888,510.374z" fill="#C6CBCB"/><polygon fill="#C6CBCB" points="143.931,431.544 57.872,458.868 59.964,465.739 146.022,438.415   "/><polygon fill="#C6CBCB" points="151.97,457.946 65.911,485.271 67.911,491.839 153.972,464.513   "/><path d="M157.731,476.856l-1.686-5.529l-86.059,27.324l1.371,4.506c0.162,0.533,0.375,1.039,0.609,1.531    l85.895-27.273C157.817,477.231,157.786,477.042,157.731,476.856z" fill="#C6CBCB"/><polygon fill="#C6CBCB" points="147.925,444.657 61.864,471.981 63.866,478.554 149.927,451.229   "/></g><g><g><path d="M235.685,341.103l48.791,71.992c0,0-9.908,20.648-35.715,31.539     c-25.809,10.893-40.91,13.814-51.334,14.854c-10.422,1.041-19.865,0.393-24.953,2.582c-5.092,2.186-17.119,6.66-17.119,6.66     l-23.59-76.824c0,0,9.355-3.762,18.766-22.928c9.41-19.162,14.721-25.355,14.721-25.355s24.625-10.332,40.191-13.92     c15.564-3.586,21.424-6.029,24.385-1.193C232.788,333.343,235.685,341.103,235.685,341.103z" fill="#F2B643"/><path d="M155.003,469.442l-0.168-0.553l-23.738-77.301l0.463-0.188c0.092-0.037,9.299-3.963,18.482-22.664     c9.334-19.008,14.576-25.213,14.795-25.469l0.086-0.098l0.117-0.049c0.248-0.105,24.846-10.391,40.279-13.949     c2.416-0.559,4.598-1.086,6.57-1.564c6.666-1.617,11.066-2.688,14.062-2.246c1.939,0.283,3.316,1.195,4.34,2.861     c2.812,4.596,5.598,11.881,5.881,12.627l48.928,72.197l-0.133,0.281c-0.102,0.207-10.297,20.961-35.996,31.807     c-27.139,11.455-42.383,13.986-51.492,14.896c-3.682,0.365-7.314,0.527-10.521,0.67c-5.938,0.26-11.064,0.488-14.271,1.865     c-5.043,2.17-17.021,6.627-17.141,6.674L155.003,469.442z M132.425,392.198l23.281,75.818c2.4-0.895,12.146-4.557,16.551-6.449     c3.391-1.455,8.609-1.689,14.65-1.957c3.35-0.145,6.812-0.297,10.467-0.664c9.037-0.904,24.172-3.416,51.176-14.812     c23.695-10.002,34.002-28.521,35.295-31l-48.648-71.777l-0.021-0.062c-0.029-0.076-2.914-7.766-5.812-12.5     c-0.85-1.391-1.949-2.117-3.566-2.355c-2.789-0.406-7.109,0.641-13.648,2.227c-1.977,0.48-4.162,1.01-6.586,1.568     c-14.779,3.406-38.066,13.045-39.977,13.84c-0.697,0.857-5.922,7.541-14.564,25.146     C142.683,386.196,134.444,391.183,132.425,392.198z" fill="#D89932"/></g><g><path d="M283.347,404.228c0,0-1.609-8.963-9.932-7.254c-9.141,1.877-31.139,9.293-42.193,14.643     c-9.703,4.695-11.338,7.23-10.162,14.283c1.176,7.055,9.18,8.725,12.445,7.693c3.279-1.031,2.268-0.016,44.568-14.043     c0,0,7.816-3.418,6.631-8.973C283.517,405.024,283.347,404.228,283.347,404.228z" fill="#F2B643"/><path d="M229.724,434.29L229.724,434.29c-3.873-0.568-8.326-3.045-9.203-8.299     c-1.227-7.377,0.729-10.152,10.465-14.865c11.082-5.363,33.236-12.82,42.32-14.686c1.195-0.246,2.33-0.293,3.375-0.139     c5.885,0.859,7.15,7.547,7.201,7.83l1.355,6.334c1.266,5.918-6.611,9.434-6.947,9.58c-34.035,11.293-39.988,12.83-42.848,13.572     c-0.666,0.174-1.139,0.295-1.775,0.496C232.612,434.444,231.214,434.509,229.724,434.29z M276.522,397.38     c-0.918-0.135-1.926-0.092-2.998,0.125c-9.023,1.855-31.045,9.27-42.066,14.602c-9.84,4.762-10.945,7.199-9.863,13.707     c0.781,4.674,4.793,6.889,8.289,7.4c1.309,0.193,2.57,0.141,3.457-0.139c0.654-0.207,1.141-0.334,1.828-0.51     c2.85-0.736,8.777-2.275,42.732-13.533c0.027-0.016,7.35-3.287,6.271-8.342l-1.359-6.348     C282.8,404.263,281.626,398.126,276.522,397.38z" fill="#D89932"/></g><g><path d="M279.005,383.784c0,0-1.473-8.068-9.93-7.256c-8.459,0.811-36.096,10.908-45.385,16.375     c-9.287,5.475-14.727,7.838-13.553,14.891c1.178,7.049,9.225,8.738,12.49,7.707c3.264-1.027,51.104-16.398,51.104-16.398     s7.816-3.414,6.631-8.971C279.175,384.577,279.005,383.784,279.005,383.784z" fill="#F2B643"/><path d="M218.851,416.194L218.851,416.194c-3.896-0.57-8.371-3.053-9.248-8.311     c-1.127-6.771,3.562-9.49,11.332-14.002c0.791-0.459,1.621-0.939,2.482-1.445c9.613-5.664,37.318-15.658,45.605-16.449     c0.98-0.094,1.918-0.076,2.793,0.051c6.428,0.941,7.715,7.58,7.727,7.648l1.354,6.332c1.266,5.922-6.609,9.436-6.943,9.584     c-0.531,0.174-47.932,15.4-51.16,16.418C221.741,416.353,220.341,416.413,218.851,416.194z M271.657,377.116     c-0.787-0.115-1.639-0.131-2.529-0.045c-8.193,0.783-35.627,10.689-45.16,16.305c-0.861,0.506-1.691,0.986-2.486,1.451     c-7.615,4.416-11.809,6.848-10.805,12.877c0.781,4.682,4.814,6.898,8.33,7.416l0,0c1.312,0.191,2.572,0.143,3.457-0.137     c3.227-1.018,50.625-16.244,51.102-16.398c0.021-0.014,7.344-3.287,6.266-8.338l-1.359-6.348     C278.425,383.642,277.302,377.942,271.657,377.116z" fill="#D89932"/></g><g><path d="M272.612,363.425c0,0-1.568-8.053-10.016-7.143c-8.445,0.91-30.324,10.408-39.547,15.984     c-9.225,5.578-18.197,10.537-16.941,17.574c1.258,7.039,7.242,7.02,10.496,5.951c3.254-1.066,50.912-16.986,50.912-16.986     s7.777-3.506,6.525-9.049C272.792,364.216,272.612,363.425,272.612,363.425z" fill="#F2B643"/><path d="M211.993,396.757L211.993,396.757c-2.438-0.355-5.529-1.83-6.422-6.818     c-1.254-7.029,6.99-11.992,15.715-17.242l1.48-0.895c9.143-5.527,31.057-15.121,39.773-16.059     c1.02-0.109,1.996-0.098,2.906,0.035c6.342,0.93,7.688,7.477,7.701,7.541l1.428,6.316c1.332,5.908-6.5,9.514-6.836,9.664     c-0.527,0.178-47.746,15.955-50.963,17.01C215.872,396.604,214.048,397.06,211.993,396.757z M265.29,356.854     c-0.82-0.119-1.705-0.129-2.633-0.029c-8.436,0.906-30.477,10.557-39.326,15.91l-1.484,0.893     c-8.395,5.053-16.326,9.828-15.201,16.119c0.777,4.352,3.422,5.629,5.506,5.934l0,0c1.34,0.197,2.902,0.049,4.287-0.406     c3.211-1.055,50.43-16.828,50.906-16.986c0.021-0.014,7.305-3.371,6.168-8.41l-1.434-6.334     C272.03,363.292,270.856,357.671,265.29,356.854z" fill="#D89932"/></g><g><path d="M264.999,340.081c0,0-2.334-7.863-10.654-6.146c-8.322,1.715-30.021,12.107-38.668,18.543     c-8.646,6.439-16.27,13.393-14.342,20.277c1.926,6.885,7.883,6.293,11.018,4.916c3.135-1.375,49.049-21.793,49.049-21.793     s7.406-4.234,5.627-9.629C265.253,340.851,264.999,340.081,264.999,340.081z" fill="#F2B643"/><path d="M207.046,378.997L207.046,378.997c-2.154-0.316-4.986-1.629-6.236-6.098     c-2.041-7.297,5.783-14.336,14.543-20.855c8.67-6.457,30.475-16.91,38.883-18.645c1.34-0.275,2.619-0.328,3.801-0.152     c5.686,0.83,7.412,6.439,7.484,6.678l2.025,6.152c1.895,5.752-5.557,10.092-5.877,10.271     c-0.508,0.232-45.998,20.463-49.098,21.822C211.733,378.54,209.509,379.358,207.046,378.997z M257.878,334.321     c-1.055-0.154-2.207-0.104-3.424,0.146c-8.305,1.711-29.865,12.057-38.451,18.447c-8.045,5.988-16.014,13.008-14.145,19.691     c0.875,3.133,2.674,4.92,5.346,5.311l0,0c2.184,0.322,4.176-0.414,4.93-0.744c3.098-1.359,48.586-21.588,49.043-21.793     c0.023-0.016,6.951-4.055,5.336-8.963l-2.031-6.168C264.411,340.024,262.866,335.054,257.878,334.321z" fill="#D89932"/></g><g><g><path d="M135.048,389.835l-3.283,2.07C131.765,391.905,133.013,391.401,135.048,389.835z" fill="#F2B643"/><path d="M245.335,359.116c-4.328-6.135-9.217-17.373-9.217-17.373s-3.33-8.4-6.291-13.234      c-2.961-4.836-8.82-2.393-24.385,1.193c-15.566,3.588-40.191,13.92-40.191,13.92s-5.311,6.193-14.721,25.355      c-5.98,12.178-11.932,18.131-15.482,20.857l46.531-29.33c26.529,8.564,34.627-5.383,34.627-5.383      c2.357,8.328,7.105,15.352,13.137,19.26c6.029,3.91,18.885,4.418,22.051,1.58C254.562,373.126,249.663,365.253,245.335,359.116z      " fill="#F2B643"/></g><path d="M131.968,392.411l-0.408-1.01c0.092-0.037,9.299-3.963,18.482-22.664     c9.334-19.008,14.576-25.213,14.795-25.469l0.086-0.098l0.117-0.049c0.248-0.105,24.846-10.391,40.279-13.949     c2.416-0.559,4.598-1.086,6.572-1.566c10.773-2.613,15.693-3.805,18.4,0.617c2.949,4.82,6.297,13.234,6.332,13.318     c0.043,0.096,4.91,11.24,9.156,17.262c4.611,6.539,9.459,14.445,5.979,17.566c-3.594,3.217-16.758,2.332-22.715-1.531     c-5.834-3.783-10.551-10.49-13.049-18.512c-2.475,3.027-12.062,11.967-34.586,4.697l0.336-1.039     c25.82,8.332,33.912-5,33.988-5.135l0.646-1.113l0.35,1.24c2.332,8.236,7.035,15.139,12.908,18.947     c5.814,3.77,18.455,4.266,21.395,1.633c3.205-2.873-3.83-12.848-6.143-16.127c-4.311-6.111-9.223-17.357-9.27-17.471     c-0.041-0.1-3.355-8.43-6.258-13.166c-2.293-3.746-6.658-2.689-17.215-0.129c-1.977,0.48-4.162,1.01-6.586,1.568     c-14.779,3.406-38.066,13.045-39.977,13.84c-0.697,0.857-5.922,7.541-14.564,25.146     C141.624,388.351,132.356,392.253,131.968,392.411z" fill="#D89932"/></g><g><path d="M256.149,357.63c3.295-1.463,5.07-2.215,5.07-2.215s6.836-3.836,5.283-9.301     c-1.408-4.951-2.348-6.74-2.348-6.74s-2.643-6.611-9.762-4.973c-1.5,0.346-3.539,1.031-5.771,1.836c0,0,2.732,0.607,4.303,3.037     c1.568,2.434,4.867,10.895,4.568,13.877C257.194,356.136,256.149,357.63,256.149,357.63z" fill="#F3BE54"/></g><g><path d="M263.136,379.749c3.273-1.08,5.139-1.908,5.139-1.908s6.654-3.291,5.42-8.836     c-1.244-5.59-2.459-7.604-2.459-7.604s-2.045-6.16-9.211-4.744c-1.512,0.301-3.236,0.811-5.912,2.162     c0,0,2.977,0.264,4.467,2.742c1.494,2.477,4.529,11.039,4.135,14.01C264.321,378.546,263.136,379.749,263.136,379.749z" fill="#F3BE54"/></g><g><path d="M270.12,399.663c3.787-0.82,5.66-2.336,5.66-2.336s5.262-2.115,3.969-8.312     c-1.123-5.393-1.814-7.006-1.814-7.006s-2.428-5.033-6.654-4.965c-2.15,1.84-4.328,2.621-7.777,3.629c0,0,2.861,0.682,4.352,3.16     c1.494,2.479,3.939,9.463,3.549,12.436C271.009,399.241,270.12,399.663,270.12,399.663z" fill="#F3BE54"/></g><g><path d="M276.163,419.603c4.115-1.186,9.223-4.59,7.961-10.047c-1.217-5.242-2.018-7.219-2.018-7.219     s-0.77-3.186-4.658-4.881c-2.117,1.777-4.48,2.488-7.629,3.475c0,0,2.785,0.691,4.219,3.125     c1.438,2.436,3.762,9.281,3.352,12.178C276.979,419.134,276.163,419.603,276.163,419.603z" fill="#F3BE54"/></g></g><g><path d="M80.054,235.822l-20.639,5.255c0,0-6.328,20.598,6.598,34.078l19.588-3.75L80.054,235.822z" fill="#F2B643"/><path d="M84.181,262.3l1.42,9.105l-19.588,3.75c-12.926-13.48-6.598-34.078-6.598-34.078s-0.111,18.754,7.666,24.4    L84.181,262.3z" fill="#D89932"/><polygon fill="#A24038" points="238.999,295.302 241.911,309.024 172.008,321.855 168.985,309.876   "/><path d="M238.028,317.009c0,0,13.916,68.027,42.658,123.605l-55.141,19.725c0,0-27.793-56.24-45.719-131.682    L238.028,317.009z" fill="#DF584C"/><polygon fill="#B9483E" points="283.249,438.765 222.38,460.78 226.733,474.376 288.347,450.88   "/><path d="M391.438,0.994c0,0-82.82,109.555-131.381,137.206c-48.564,27.653-92.498,23.7-92.498,23.7l24.553,145.158    c0,0,44.217-15.877,76.434-12.396c32.219,3.48,76.367,14.916,192.137,91.486L391.438,0.994z" fill="#D1D5D5"/><path d="M167.56,161.9c0,0-99.186-2.117-89.688,84.956c9.494,87.073,114.24,60.202,114.24,60.202L167.56,161.9z" fill="#DF584C"/><path d="M185.183,265.521l6.93,41.537c0,0,44.217-15.877,76.434-12.396c32.219,3.48,76.367,14.916,192.137,91.486    l-9.824-54.648l-69.477-38.973c0,0-60.453-31.119-102.482-36.658C236.872,250.33,185.183,265.521,185.183,265.521z" fill="#C6CBCB"/><path d="M91.2,192.3c-10.002,12.425-16.016,29.92-13.328,54.556c9.494,87.073,114.24,60.202,114.24,60.202    l-6.93-41.537c0,0-18.32,3.9-46.379-4.869C94.606,246.838,91.2,192.3,91.2,192.3z" fill="#B9483E"/><path d="M169.302,172.679L167.56,161.9c0,0,43.934,3.953,92.498-23.7C308.618,110.549,391.438,0.994,391.438,0.994    l3.047,16.954c0,0-50.555,61.294-63.42,77.19c-14.332,17.708-40.119,44.741-74.186,60.659    C243.687,161.962,210.224,172.301,169.302,172.679z" fill="#E2E5E7"/><path d="M451.603,188.89c18.477,106.615,22.609,194.917,9.234,197.232c-13.371,2.32-39.182-82.23-57.658-188.842    C384.71,90.668,380.575,2.363,393.944,0.046C407.319-2.272,433.128,82.278,451.603,188.89z" fill="#A24038"/><path d="M466.618,302.849c3.986,49.16,2.289,81.877-5.781,83.273c-13.371,2.32-39.182-82.23-57.658-188.842    C384.71,90.668,380.575,2.363,393.944,0.046c5.455-0.945,12.98,12.559,21.23,36.114c0,0-9.182-17.512-16.404-14.846    c-7.219,2.668,7.402,140.161,15.697,176.767c8.295,36.604,29.988,159.823,41.785,163.438    C468.048,365.13,466.618,302.849,466.618,302.849z" fill="#DF584C"/><path d="M424.354,246.042c0,0,44.025-13.365,35.404-56.226c-8.619-42.862-52.873-39.075-52.873-39.075    S413.562,197.84,424.354,246.042z" fill="#F2B643"/><path d="M169.378,172.662L167.56,161.9c0,0-58.076-1.24-81.094,37.19    C86.466,199.09,107.933,166.933,169.378,172.662z" fill="#E56761"/><path d="M437.829,239.551c-7.283,4.61-13.475,6.489-13.475,6.491c-10.793-48.202-17.469-95.301-17.469-95.301    s1.961-0.168,5.135-0.033c0,0,5.365,50.068,12.154,67.57C430.964,235.782,437.829,239.551,437.829,239.551z" fill="#D89932"/><path d="M270.97,420.147c1.092,2.234,8.576,18.268,9.717,20.467l-55.141,19.725    c0,0-27.793-56.24-45.719-131.682l15.463-2.871c0,0,20.488,75.455,32.453,96.465c7.295,12.809,23.859,2.395,23.859,2.395    L270.97,420.147z" fill="#B9483E" opacity="0.37"/><path d="M274.331,427.243c0,0-12.814,2.34-23.453,6.102c-10.637,3.76-24.307,7.85-31.301-2.936    c0,0-4.004-6.459-1.703-10.889c0,0-6.639-2.254-8.955-7.73c-2.314-5.477-2.354-8.967,1.178-13.031c0,0-4.432-2.301-6.215-6.416    c-1.781-4.111,0.547-8.723,2.764-11.334c0,0-6.209-1.459-7.629-5.52c-1.424-4.059-1.131-7.316,0.854-9.596    c0,0-7.734,0.146-10.721-3.223l16.264-3.301l66.426,62.373L274.331,427.243z" fill="#B9483E"/><path d="M277.679,434.647l-54.705,20.248c1.637,3.553,2.572,5.443,2.572,5.443l55.141-19.725    C279.665,438.64,278.663,436.649,277.679,434.647z" fill="#B9483E" opacity="0.47"/><polygon fill="#B9483E" points="241.679,308.108 243.934,317.009 173.307,331.021 171.896,321.065   "/></g><g><defs><path d="M238.028,317.009c0,0,15.02,67.406,42.658,123.605l-55.141,19.725c0,0-42.998-66.996-45.719-131.682     L238.028,317.009z" id="SVGID_5_"/></defs><clipPath id="SVGID_6_"><use overflow="visible" xlink:href="#SVGID_5_"/></clipPath><g clip-path="url(#SVGID_6_)"><g><path d="M283.347,404.228c0,0-1.609-8.963-9.932-7.254c-9.141,1.877-31.139,9.293-42.193,14.643      c-9.703,4.695-11.338,7.23-10.162,14.283c1.176,7.055,9.18,8.725,12.445,7.693c3.279-1.031,2.268-0.016,44.568-14.043      c0,0,7.816-3.418,6.631-8.973C283.517,405.024,283.347,404.228,283.347,404.228z" fill="#F2B643"/><path d="M229.724,434.29L229.724,434.29c-3.873-0.568-8.326-3.045-9.203-8.299      c-1.227-7.377,0.729-10.152,10.465-14.865c11.082-5.363,33.236-12.82,42.32-14.686c1.195-0.246,2.33-0.293,3.375-0.139      c5.885,0.859,7.15,7.547,7.201,7.83l1.355,6.334c1.266,5.918-6.611,9.434-6.947,9.58c-34.035,11.293-39.988,12.83-42.848,13.572      c-0.666,0.174-1.139,0.295-1.775,0.496C232.612,434.444,231.214,434.509,229.724,434.29z M276.522,397.38      c-0.918-0.135-1.926-0.092-2.998,0.125c-9.023,1.855-31.045,9.27-42.066,14.602c-9.84,4.762-10.945,7.199-9.863,13.707      c0.781,4.674,4.793,6.889,8.289,7.4c1.309,0.193,2.57,0.141,3.457-0.139c0.654-0.207,1.141-0.334,1.828-0.51      c2.85-0.736,8.777-2.275,42.732-13.533c0.027-0.016,7.35-3.287,6.271-8.342l-1.359-6.348      C282.8,404.263,281.626,398.126,276.522,397.38z" fill="#D89932"/></g><g><path d="M279.005,383.784c0,0-1.473-8.068-9.93-7.256c-8.459,0.811-36.096,10.908-45.385,16.375      c-9.287,5.475-14.727,7.838-13.553,14.891c1.178,7.049,9.225,8.738,12.49,7.707c3.264-1.027,51.104-16.398,51.104-16.398      s7.816-3.414,6.631-8.971C279.175,384.577,279.005,383.784,279.005,383.784z" fill="#F2B643"/><path d="M218.851,416.194L218.851,416.194c-3.896-0.57-8.371-3.053-9.248-8.311      c-1.127-6.771,3.562-9.49,11.332-14.002c0.791-0.459,1.621-0.939,2.482-1.445c9.613-5.664,37.318-15.658,45.605-16.449      c0.98-0.094,1.918-0.076,2.793,0.051c6.428,0.941,7.715,7.58,7.727,7.648l1.354,6.332c1.266,5.922-6.609,9.436-6.943,9.584      c-0.531,0.174-47.932,15.4-51.16,16.418C221.741,416.353,220.341,416.413,218.851,416.194z M271.657,377.116      c-0.787-0.115-1.639-0.131-2.529-0.045c-8.193,0.783-35.627,10.689-45.16,16.305c-0.861,0.506-1.691,0.986-2.486,1.451      c-7.615,4.416-11.809,6.848-10.805,12.877c0.781,4.682,4.814,6.898,8.33,7.416l0,0c1.312,0.191,2.572,0.143,3.457-0.137      c3.227-1.018,50.625-16.244,51.102-16.398c0.021-0.014,7.344-3.287,6.266-8.338l-1.359-6.348      C278.425,383.642,277.302,377.942,271.657,377.116z" fill="#D89932"/></g><g><path d="M272.612,363.425c0,0-1.568-8.053-10.016-7.143c-8.445,0.91-30.324,10.408-39.547,15.984      c-9.225,5.578-18.197,10.537-16.941,17.574c1.258,7.039,7.242,7.02,10.496,5.951c3.254-1.066,50.912-16.986,50.912-16.986      s7.777-3.506,6.525-9.049C272.792,364.216,272.612,363.425,272.612,363.425z" fill="#F2B643"/><path d="M211.993,396.757L211.993,396.757c-2.438-0.355-5.529-1.83-6.422-6.818      c-1.254-7.029,6.99-11.992,15.715-17.242l1.48-0.895c9.143-5.527,31.057-15.121,39.773-16.059      c1.02-0.109,1.996-0.098,2.906,0.035c6.342,0.93,7.688,7.477,7.701,7.541l1.428,6.316c1.332,5.908-6.5,9.514-6.836,9.664      c-0.527,0.178-47.746,15.955-50.963,17.01C215.872,396.604,214.048,397.06,211.993,396.757z M265.29,356.854      c-0.82-0.119-1.705-0.129-2.633-0.029c-8.436,0.906-30.477,10.557-39.326,15.91l-1.484,0.893      c-8.395,5.053-16.326,9.828-15.201,16.119c0.777,4.352,3.422,5.629,5.506,5.934l0,0c1.34,0.197,2.902,0.049,4.287-0.406      c3.211-1.055,50.43-16.828,50.906-16.986c0.021-0.014,7.305-3.371,6.168-8.41l-1.434-6.334      C272.03,363.292,270.856,357.671,265.29,356.854z" fill="#D89932"/></g><g><polygon fill="#E2E5E7" points="130.185,386.401 157.659,475.853 134.716,484.413 106.247,393.302     "/></g><g><path d="M264.999,340.081c0,0-2.334-7.863-10.654-6.146c-8.322,1.715-30.021,12.107-38.668,18.543      c-8.646,6.439-16.27,13.393-14.342,20.277c1.926,6.885,7.883,6.293,11.018,4.916c3.135-1.375,49.049-21.793,49.049-21.793      s7.406-4.234,5.627-9.629C265.253,340.851,264.999,340.081,264.999,340.081z" fill="#F2B643"/><path d="M207.046,378.997L207.046,378.997c-2.154-0.316-4.986-1.629-6.236-6.098      c-2.041-7.297,5.783-14.336,14.543-20.855c8.67-6.457,30.475-16.91,38.883-18.645c1.34-0.275,2.619-0.328,3.801-0.152      c5.686,0.83,7.412,6.439,7.484,6.678l2.025,6.152c1.895,5.752-5.557,10.092-5.877,10.271      c-0.508,0.232-45.998,20.463-49.098,21.822C211.733,378.54,209.509,379.358,207.046,378.997z M257.878,334.321      c-1.055-0.154-2.207-0.104-3.424,0.146c-8.305,1.711-29.865,12.057-38.451,18.447c-8.045,5.988-16.014,13.008-14.145,19.691      c0.875,3.133,2.674,4.92,5.346,5.311l0,0c2.184,0.322,4.176-0.414,4.93-0.744c3.098-1.359,48.586-21.588,49.043-21.793      c0.023-0.016,6.951-4.055,5.336-8.963l-2.031-6.168C264.411,340.024,262.866,335.054,257.878,334.321z" fill="#D89932"/></g><g><g><path d="M135.048,389.835l-3.283,2.07C131.765,391.905,133.013,391.401,135.048,389.835z" fill="#F2B643"/><path d="M245.335,359.116c-4.328-6.135-9.217-17.373-9.217-17.373s-3.33-8.4-6.291-13.234       c-2.961-4.836-8.82-2.393-24.385,1.193c-15.566,3.588-40.191,13.92-40.191,13.92s-5.311,6.193-14.721,25.355       c-5.98,12.178-11.932,18.131-15.482,20.857l46.531-29.33c26.529,8.564,34.627-5.383,34.627-5.383       c2.357,8.328,7.105,15.352,13.137,19.26c6.029,3.91,18.885,4.418,22.051,1.58C254.562,373.126,249.663,365.253,245.335,359.116       z" fill="#F2B643"/></g><path d="M165.251,343.622c0,0,24.625-10.332,40.191-13.92c15.564-3.586,21.424-6.029,24.385-1.193      c2.961,4.834,6.291,13.234,6.291,13.234s4.889,11.238,9.217,17.373c4.328,6.137,9.227,14.01,6.059,16.846      c0,0,0.787-1.578-0.914-4.99c-1.701-3.416-9.936-14.803-12.268-19.545c-2.33-4.744-7.965-17.307-9.17-19.41      c-1.203-2.102-3.699-4.484-6.471-4.34c-2.771,0.143-17.992,3.553-22.059,5.02C196.448,334.163,165.251,343.622,165.251,343.622z      " fill="#F3BE54"/><path d="M131.968,392.411l-0.408-1.01c0.092-0.037,9.299-3.963,18.482-22.664      c9.334-19.008,14.576-25.213,14.795-25.469l0.086-0.098l0.117-0.049c0.248-0.105,24.846-10.391,40.279-13.949      c2.416-0.559,4.598-1.086,6.572-1.566c10.773-2.613,15.693-3.805,18.4,0.617c2.949,4.82,6.297,13.234,6.332,13.318      c0.043,0.096,4.91,11.24,9.156,17.262c4.611,6.539,9.459,14.445,5.979,17.566c-3.594,3.217-16.758,2.332-22.715-1.531      c-5.834-3.783-10.551-10.49-13.049-18.512c-2.475,3.027-12.062,11.967-34.586,4.697l0.336-1.039      c25.82,8.332,33.912-5,33.988-5.135l0.646-1.113l0.35,1.24c2.332,8.236,7.035,15.139,12.908,18.947      c5.814,3.77,18.455,4.266,21.395,1.633c3.205-2.873-3.83-12.848-6.143-16.127c-4.311-6.111-9.223-17.357-9.27-17.471      c-0.041-0.1-3.355-8.43-6.258-13.166c-2.293-3.746-6.658-2.689-17.215-0.129c-1.977,0.48-4.162,1.01-6.586,1.568      c-14.779,3.406-38.066,13.045-39.977,13.84c-0.697,0.857-5.922,7.541-14.564,25.146      C141.624,388.351,132.356,392.253,131.968,392.411z" fill="#D89932"/></g></g></g><path d="M230.368,391.823c0,0-1.432,12.1,7.766,18.33l-13.893,4.225c0,0-3.355,1.777-7.324,0.232   c-3.969-1.543-5.646-3.717-6.365-7.26s2.131-6.564,2.131-6.564s4.539-4.219,9.09-6.166   C226.272,393.009,230.368,391.823,230.368,391.823z" fill="#D89932" opacity="0.29"/><path d="M238.44,410.886c0,0-0.686,11.252,8.404,18.223l-13.084,3.861c0,0-6.639,2.123-10.969-4.018   c-2.266-3.77-1.549-7.721-0.928-9.627c0.623-1.904,3.203-4.002,4.51-4.498C227.687,414.331,238.44,410.886,238.44,410.886z" fill="#D89932" opacity="0.29"/><path d="M224.032,373.101c0,0-1.154,10.379,6.441,17.361l-12.936,4.434c0,0-6.26,2.66-9.658-1.691   c-3.396-4.35,0.02-8.893,0.688-9.713c1.061-1.586,6.555-5.918,8.973-7.396C219.958,374.614,224.032,373.101,224.032,373.101z" fill="#D89932" opacity="0.29"/><path d="M215.995,356.327c0,0,1.703,7.408,9.018,15.084l-12.57,5.68c0,0-7.455,3.309-9.871-2.732   c-2.416-6.039,0.52-9.186,2.326-11.488C204.897,362.87,211.399,361.794,215.995,356.327z" fill="#D89932" opacity="0.29"/><path d="M189.149,362.671c0,0,9.873,37.764,33.189,91.436l-11.584,2.705   C210.755,456.812,197.917,394.218,189.149,362.671z" fill="#D89932" opacity="0.29"/><path d="M132.425,392.198l23.281,75.818l8.209-3.211c0,0-20.404-44.445-29.287-73.945   C134.009,391.319,133.7,391.55,132.425,392.198z" fill="#D89932" opacity="0.29"/></g><g><g><path d="M-1718.453,1060.799c20.609,7.637,334.509-303.678,334.509-303.678s13.662-36.863-15.889-47.816    c-22.986-8.518-163.046-60.428-163.046-60.428c-26.822-9.939-43.324,3.229-48.531,17.283    c-5.209,14.053-126.82,342.176-133.328,359.74C-1751.248,1043.465-1739.061,1053.162-1718.453,1060.799z" fill="#C6CBCB"/><path d="M-1513.175,1105.805c-5.592,15.088-22.357,22.787-37.447,17.195l-169.138-62.686    c-15.09-5.592-22.789-22.359-17.195-37.447l129.229-348.684c5.592-15.09,22.359-22.789,37.449-17.195l169.136,62.686    c15.09,5.592,22.789,22.357,17.197,37.447L-1513.175,1105.805z" fill="#E2E5E7"/><rect fill="#2D404E" height="332.993" transform="matrix(0.9377 0.3475 -0.3475 0.9377 208.0453 595.4008)" width="208.119" x="-1659.957" y="711.215"/><path d="M-1460.724,718.307c-0.799,2.158-3.342,3.203-5.678,2.336l-55.012-20.389    c-2.336-0.865-3.582-3.314-2.783-5.471l0,0c0.799-2.156,3.342-3.201,5.678-2.336l55.01,20.389    C-1461.173,713.703-1459.927,716.15-1460.724,718.307L-1460.724,718.307z" fill="#586A73"/><path d="M-1463.517,720.789c-0.904,0.244-1.912,0.215-2.885-0.146l-55.012-20.389    c-2.336-0.865-3.582-3.314-2.783-5.471l0,0c0.799-2.156,3.342-3.201,5.678-2.336c0,0-2.27,1.195-2.402,3.549    c-0.133,2.357,6.312,4.93,9.238,6.016C-1508.753,703.098-1463.517,720.789-1463.517,720.789z" fill="#2D404E"/><polygon fill="#E2E5E7" opacity="0.19" points="-1595.611,685.43 -1696.867,958.637 -1407.745,777.402 -1400.464,757.756   "/><g><circle cx="-1624.486" cy="1062.433" fill="#C6CBCB" r="17.545"/><circle cx="-1624.486" cy="1062.433" fill="#D1D5D5" r="14.987"/><path d="M-1613.646,1066.449c2.219-5.986-0.834-12.639-6.822-14.857c-5.986-2.219-12.639,0.834-14.857,6.822     c-2.221,5.99,0.836,12.641,6.822,14.859S-1615.865,1072.439-1613.646,1066.449z" fill="#E2E5E7"/></g><path d="M-1449.665,698.545l32.996,12.23c0,0,2.412-1.262,1.703-4.598l-32.996-12.23    C-1447.962,693.947-1450.89,695.479-1449.665,698.545z" fill="#D1D5D5"/><path d="M-1414.966,706.178l-32.996-12.23c0,0-2.182,1.141-1.99,3.426l34.164,12.656    C-1415.183,709.328-1414.558,708.098-1414.966,706.178z" fill="#E2E5E7"/><ellipse cx="-1547.447" cy="659.69" fill="#E2E5E7" rx="8.181" ry="2.451" transform="matrix(0.9377 0.3475 -0.3475 0.9377 132.8052 578.8446)"/></g><g><path d="M-1330.819,949.045c-11.729,31.646-36.818,54.438-66.502,64.395l9.068,18.16    c34.084-12.283,62.736-38.926,76.312-75.557c13.578-36.631,9.209-75.508-8.641-107.037l-18.711,7.861    C-1323.271,883.766-1319.091,917.402-1330.819,949.045z" fill="#DF584C"/><path d="M-1371.071,934.129c-7.793,21.027-25.426,35.541-45.748,40.277l10.346,20.711    c25.26-7.566,46.797-26.479,56.666-53.107c9.869-26.633,5.861-55.01-8.369-77.209l-21.342,8.965    C-1367.192,890.602-1363.276,913.1-1371.071,934.129z" fill="#DF584C"/></g><g><path d="M-1789.133,785.127c-11.729,31.645-7.551,65.285,8.475,92.182l-18.713,7.861    c-17.848-31.527-22.217-70.408-8.641-107.039s42.227-63.271,76.312-75.555l9.068,18.16    C-1752.314,730.695-1777.404,753.482-1789.133,785.127z" fill="#DF584C"/><path d="M-1748.881,800.045c-7.795,21.031-3.879,43.529,8.447,60.363l-21.342,8.969    c-14.23-22.203-18.238-50.58-8.369-77.213c9.871-26.629,31.406-45.541,56.668-53.104l10.344,20.709    C-1723.455,764.504-1741.088,779.018-1748.881,800.045z" fill="#DF584C"/></g></g><g><path d="M-740.396,847.702c0,120.709-97.865,218.572-218.574,218.572s-218.572-97.863-218.572-218.572   s97.863-218.574,218.572-218.574S-740.396,726.993-740.396,847.702z" fill="#2D404E"/><path d="M-816.337,847.702c0,78.77-63.861,142.631-142.633,142.631c-78.77,0-142.631-63.861-142.631-142.631   c0-78.771,63.861-142.631,142.631-142.631C-880.198,705.071-816.337,768.931-816.337,847.702z" fill="#253744"/><path d="M-824.272,847.702c0,74.387-60.309,134.693-134.697,134.693c-74.387,0-134.695-60.307-134.695-134.693   s60.309-134.695,134.695-134.695C-884.581,713.007-824.272,773.315-824.272,847.702z" fill="#E2E5E7"/><path d="M-860.683,847.702c0,54.277-44.008,98.285-98.287,98.285s-98.285-44.008-98.285-98.285   c0-54.279,44.006-98.285,98.285-98.285S-860.683,793.423-860.683,847.702z" fill="#2D404E"/><path d="M-889.144,847.702c0,38.562-31.264,69.826-69.826,69.826c-38.561,0-69.824-31.264-69.824-69.826   s31.264-69.826,69.824-69.826C-920.407,777.876-889.144,809.14-889.144,847.702z" fill="#586A73"/><circle cx="-958.969" cy="847.702" fill="#253744" r="42.46"/><path d="M-964.884,834.925c0,8.467-6.867,15.334-15.336,15.334c-8.465,0-15.334-6.867-15.334-15.334   c0-8.469,6.869-15.336,15.334-15.336C-971.751,819.589-964.884,826.456-964.884,834.925z" fill="#E2E5E7" opacity="0.7"/><circle cx="-939.515" cy="869.634" fill="#E2E5E7" opacity="0.7" r="9.541"/><circle cx="-957.351" cy="679.687" fill="#DF584C" r="13.107"/><path d="M-769.962,1073.278c-26.842-22.367-46.246-6.066-67.102-1.49c-24.432,5.361-55.176,14.168-121.906,14.912   c-66.729-0.744-97.473-9.551-121.904-14.912c-20.855-4.576-40.262-20.877-67.102,1.49c-26.842,22.369-34.299,55.176-22.367,65.615   c11.93,10.439,53.682-19.385,95.436-17.895c41.75,1.492,99.051,17.895,115.938,17.895c16.889,0,74.188-16.402,115.939-17.895   c41.754-1.49,83.506,28.334,95.436,17.895S-743.12,1095.647-769.962,1073.278z" fill="#2D404E"/><path d="M-1001.446,936.358c-33.012-15.846-55.809-49.592-55.809-88.656c0-54.279,44.006-98.285,98.285-98.285   c33.924,0,63.836,17.189,81.502,43.334c0,0-38.318-40.678-89.895-31.785s-78.01,54.768-74.047,108.668   C-1037.442,923.532-1001.446,936.358-1001.446,936.358z" fill="#253744"/><path d="M-1177.542,847.702c0,120.709,97.863,218.572,218.572,218.572s218.574-97.863,218.574-218.572   c0,0-69.693,157.602-218.574,157.602C-1107.849,1005.304-1177.542,847.702-1177.542,847.702z" fill="#253744"/><ellipse cx="-958.969" cy="1023.321" fill="#2D404E" rx="29.274" ry="11.234"/><path d="M-1116.37,1127.538c13.037-3.926,27.248-7.047,41.463-6.539c41.75,1.492,99.051,17.895,115.938,17.895   c16.889,0,74.188-16.402,115.939-17.895c14.689-0.525,29.377,2.826,42.768,6.938c0,0-32.35-16.062-60.42-12.098   s-69.375,11.211-98.287,11.211c-28.91,0-92.352-11.84-102.926-11.84C-1093.665,1115.21-1116.37,1127.538-1116.37,1127.538z" fill="#253744"/><path d="M-1149.526,1138.548c-9.523,2.83-16.832,3.832-20.816,0.346c-11.932-10.439-4.475-43.246,22.367-65.615   c26.84-22.367,46.246-6.066,67.102-1.49c0,0-33.994-6.506-47.488,4.398s-32.312,34.576-31.336,49.562   C-1158.724,1140.735-1149.526,1138.548-1149.526,1138.548z" fill="#253744"/><path d="M-768.411,1138.548c9.523,2.83,16.832,3.832,20.816,0.346c11.93-10.439,4.475-43.246-22.367-65.615   c-26.842-22.367-46.246-6.066-67.102-1.49c0,0,33.992-6.506,47.488,4.398c13.494,10.904,32.312,34.576,31.336,49.562   C-759.214,1140.735-768.411,1138.548-768.411,1138.548z" fill="#253744"/><path d="M-1087.944,671.239c-97.455,71.225-118.717,207.984-47.488,305.438l352.926-257.951   C-853.735,621.272-990.491,600.009-1087.944,671.239z" fill="#E2E5E7" opacity="0.22"/></g><g><path d="M-441.311,1021.772c2.248,7.762-2.221,15.877-9.982,18.123l-13.227,3.83   c-7.762,2.248-15.875-2.221-18.123-9.982l-39.979-138.053c-2.248-7.762,2.221-15.875,9.982-18.123l13.227-3.83   c7.762-2.248,15.875,2.223,18.123,9.984L-441.311,1021.772z" fill="#2D404E"/><polygon fill="#2D404E" points="-522.621,895.69 -533.521,899.212 -497.807,1024.003 -486.439,1020.634  "/><path d="M-543.85,856.612l10.328,42.6l35.715,124.791c0,0,4.734,15.061,7.746,18.504   c0,0-7.746,12.479-12.479,12.479c0,0-4.303-5.594-11.619-30.982C-521.473,998.614-546,912.552-546,912.552   s-4.305-14.199-6.025-25.818s-6.455-30.121-6.455-30.121H-543.85z" fill="#F2B643"/><path d="M-514.158,1024.003C-521.473,998.614-546,912.552-546,912.552s-4.305-14.199-6.025-25.818   s-6.455-30.121-6.455-30.121l-18.934,3.873c0,0-0.572,48.051,4.018,80.182c4.59,32.129,17.213,69.709,26.965,83.336   c9.754,13.627,12.91,16.783,12.91,16.783s23.666,13.34,30.982,14.199C-502.539,1054.985-506.842,1049.392-514.158,1024.003z" fill="#9D6227"/><path d="M-497.807,1024.003c0,0,4.734,15.061,7.746,18.504c0,0,0.861-7.029-3.873-19.652L-497.807,1024.003z" fill="#D89932"/><path d="M-558.48,854.89c0,0-6.023-20.654-3.012-40.018c3.012-19.365,12.479-50.777,30.121-80.898l-7.744-4.734   c0,0-20.225,38.297-26.25,57.232c-6.023,18.934-12.08,60.668-12.07,71.861L-558.48,854.89z" fill="#9D6227"/><path d="M-558.48,854.89c0,0-6.023-20.654-3.012-40.018c3.012-19.365,12.479-50.777,30.121-80.898l9.324,5.881   c0,0-40.164,55.365-22.664,115.035H-558.48z" fill="#F2B643"/><path d="M-300.969,1021.772c-2.248,7.762,2.223,15.877,9.984,18.123l13.225,3.83   c7.762,2.248,15.877-2.221,18.125-9.982l39.979-138.053c2.246-7.762-2.223-15.875-9.984-18.123l-13.227-3.83   c-7.762-2.248-15.875,2.223-18.123,9.984L-300.969,1021.772z" fill="#2D404E"/><polygon fill="#2D404E" points="-219.656,895.69 -208.758,899.212 -244.473,1024.003 -255.84,1020.634  "/><path d="M-198.43,856.612l-10.328,42.6l-35.715,124.791c0,0-4.734,15.061-7.746,18.504   c0,0,7.746,12.479,12.479,12.479c0,0,4.305-5.594,11.619-30.982s31.844-111.451,31.844-111.451s4.303-14.199,6.023-25.818   s6.455-30.121,6.455-30.121H-198.43z" fill="#F2B643"/><path d="M-164.865,860.485l-18.934-3.873c0,0-4.734,18.502-6.455,30.121s-6.023,25.818-6.023,25.818   s-24.529,86.062-31.844,111.451s-11.619,30.982-11.619,30.982c7.316-0.859,30.982-14.199,30.982-14.199s3.156-3.156,12.91-16.783   s22.377-51.207,26.967-83.336C-164.291,908.536-164.865,860.485-164.865,860.485z" fill="#9D6227"/><path d="M-244.473,1024.003c0,0-4.734,15.061-7.746,18.504c0,0-0.861-7.029,3.873-19.652L-244.473,1024.003z" fill="#D89932"/><path d="M-183.799,854.89c0,0,6.023-20.654,3.012-40.018c-3.012-19.365-12.479-50.777-30.121-80.898l7.746-4.734   c0,0,20.225,38.297,26.248,57.232c6.025,18.934,12.08,60.668,12.072,71.861L-183.799,854.89z" fill="#9D6227"/><path d="M-183.799,854.89c0,0,6.023-20.654,3.012-40.018c-3.012-19.365-12.479-50.777-30.121-80.898l-9.322,5.881   c0,0,40.164,55.365,22.664,115.035H-183.799z" fill="#F2B643"/><path d="M-286.5,649.489c-40.449-21.23-84.639-20.369-84.639-20.369s-44.191-0.861-84.641,20.369   c-40.449,21.229-70.283,57.375-82.045,77.17l15.777,10.9c0,0,12.623-21.803,42.457-46.762c0,0,0.289-11.188,12.91-21.801   c12.621-10.615,41.906-26.967,95.541-29.549c53.633,2.582,82.918,18.934,95.539,29.549c12.623,10.613,12.91,21.801,12.91,21.801   c29.834,24.959,42.459,46.762,42.459,46.762l15.777-10.9C-216.217,706.864-246.051,670.718-286.5,649.489z" fill="#9D6227"/><path d="M-266.418,673.587l-1.611,1.303c0,0,5.914,5.51,7.205,12.18c0,0,22.807,20.439,34.424,37.436   c0,0,1.723-7.314-2.797-14.846C-233.715,702.13-266.418,673.587-266.418,673.587z" fill="#2D404E"/><path d="M-371.139,639.448c-50.688,2.439-79.627,17.178-93.307,27.748c0,0,6.516,6.246,15.266,8.541   s21.658,1.436,28.975,1.004c7.314-0.43,49.066-0.717,49.066-0.717s41.75,0.287,49.066,0.717c7.314,0.432,20.225,1.291,28.975-1.004   s15.264-8.541,15.264-8.541C-291.514,656.626-320.453,641.888-371.139,639.448z" fill="#2D404E"/><path d="M-170.326,950.95l7.064,2.463c0,0,5.008-10.58,14.428-7.295c9.42,3.281,9.842,10.912,5.463,23.473   c-6.43,18.447-11.688,18.373-14.043,17.553l-8.072,23.156l-8.002-3.051l7.936-22.764c0,0-7.771-0.285-2.105-17.201l-5.973-2.08   L-170.326,950.95z" fill="#2D404E"/><path d="M-173.488,1007.249c0,0-46.35,117.256-159.945,117.256v8.84c0,0,115.426,5.553,167.947-123.045   L-173.488,1007.249z" fill="#2D404E"/><path d="M-333.377,1134.653c0,3.568-3.324,6.463-7.422,6.463h-38.043c-4.1,0-7.422-2.895-7.422-6.463v-10.266   c0-3.568,3.322-6.461,7.422-6.461h38.043c4.098,0,7.422,2.893,7.422,6.461V1134.653z" fill="#2D404E"/><path d="M-475.859,673.587l1.609,1.303c0,0-5.912,5.51-7.203,12.18c0,0-22.807,20.439-34.426,37.436   c0,0-1.721-7.314,2.797-14.846C-508.564,702.13-475.859,673.587-475.859,673.587z" fill="#2D404E"/><path d="M-514.158,1024.003c7.316,25.389,11.619,30.982,11.619,30.982c-7.316-0.859-30.982-14.199-30.982-14.199   s-3.156-3.156-12.91-16.783c-9.752-13.627-22.375-51.207-26.965-83.336c-4.59-32.131-4.018-80.182-4.018-80.182l4.131-0.846   c0,0,0.604,57.646,7.488,84.756s29.691,71.002,39.588,76.166C-516.309,1025.724-514.158,1024.003-514.158,1024.003z" fill="#915A26"/><path d="M-228.121,1024.003c-7.314,25.389-11.619,30.982-11.619,30.982c7.316-0.859,30.982-14.199,30.982-14.199   s3.156-3.156,12.91-16.783s22.377-51.207,26.967-83.336c4.59-32.131,4.016-80.182,4.016-80.182l-4.129-0.846   c0,0-0.604,57.646-7.49,84.756c-6.885,27.109-29.691,71.002-39.588,76.166C-225.969,1025.724-228.121,1024.003-228.121,1024.003z" fill="#915A26"/><path d="M-574,857.71c0,0,2.611-25.195,5.623-44.561c3.012-19.363,15.082-51.672,32.725-81.793l-3.463-2.117   c0,0-20.225,38.297-26.25,57.232c-6.023,18.934-12.08,60.668-12.07,71.861L-574,857.71z" fill="#915A26"/><path d="M-168.277,857.71c0,0-2.611-25.195-5.625-44.561c-3.012-19.363-15.082-51.672-32.725-81.793l3.465-2.117   c0,0,20.225,38.297,26.248,57.232c6.025,18.934,12.08,60.668,12.072,71.861L-168.277,857.71z" fill="#915A26"/><path d="M-535.648,728.163l-2.176-1.504c11.762-19.795,41.596-55.941,82.045-77.17   C-455.779,649.489-502.92,676.741-535.648,728.163z" fill="#915A26"/><path d="M-206.432,728.024l1.979-1.365c-11.764-19.795-41.598-55.941-82.047-77.17   C-286.5,649.489-242.094,672.591-206.432,728.024z" fill="#915A26"/><path d="M-554.404,854.89h-4.076c0,0-6.023-20.654-3.012-40.018c3.012-19.365,12.479-50.777,30.121-80.898   l2.129,1.34c0,0-25.365,42.121-29.238,79.559C-561.537,839.024-554.404,854.89-554.404,854.89z" fill="#D89932"/><path d="M-187.875,854.89h4.076c0,0,6.023-20.654,3.012-40.018c-3.012-19.365-12.479-50.777-30.121-80.898   l-2.127,1.34c0,0,25.363,42.121,29.236,79.559C-180.742,839.024-187.875,854.89-187.875,854.89z" fill="#D89932"/><path d="M-496.551,1051.079c-2.043,2.174-4.225,3.906-5.988,3.906c0,0-4.303-5.594-11.619-30.982   C-521.473,998.614-546,912.552-546,912.552s-4.305-14.199-6.025-25.818s-6.455-30.121-6.455-30.121h4.076   c0,0,6.984,37.006,12.213,55.08c5.227,18.072,32.336,110.16,37.5,123.068C-499.527,1047.671-496.551,1051.079-496.551,1051.079z" fill="#D89932"/><path d="M-245.729,1051.079c2.045,2.174,4.227,3.906,5.988,3.906c0,0,4.305-5.594,11.619-30.982   s31.844-111.451,31.844-111.451s4.303-14.199,6.023-25.818s6.455-30.121,6.455-30.121h-4.076c0,0-6.984,37.006-12.211,55.08   c-5.229,18.072-32.338,110.16-37.502,123.068C-242.752,1047.671-245.729,1051.079-245.729,1051.079z" fill="#D89932"/><path d="M-512.639,877.567c-7.762,2.248-12.23,10.361-9.982,18.123l39.979,138.053   c2.248,7.762,10.361,12.23,18.123,9.982L-512.639,877.567z" fill="#253744"/><path d="M-229.641,877.567c7.762,2.248,12.23,10.361,9.984,18.123l-39.979,138.053   c-2.248,7.762-10.363,12.23-18.125,9.982L-229.641,877.567z" fill="#253744"/><polygon fill="#223440" points="-522.621,895.69 -529.242,897.829 -493.934,1022.854 -486.439,1020.634  "/><polygon fill="#223440" points="-219.656,895.69 -213.035,897.829 -248.346,1022.854 -255.84,1020.634  "/><path d="M-461.412,669.675c-1.922-1.412-3.033-2.479-3.033-2.479c13.68-10.57,42.619-25.309,93.307-27.748   c50.686,2.439,79.625,17.178,93.305,27.748c0,0-0.895,0.859-2.467,2.057c0,0-29.684-19.764-90.838-19.764   C-432.295,649.489-461.412,669.675-461.412,669.675z" fill="#253744"/><path d="M-171.488,1008.011l-2-0.762l7.936-22.764c0,0-7.771-0.285-2.105-17.201l-5.973-2.08l3.305-14.254   l7.064,2.463c0,0,5.008-10.58,14.428-7.295c0,0-5.047-1.139-9.689,9.68c-4.641,10.818-9.283,23.65-4.096,26.928L-171.488,1008.011z   " fill="#253744"/><path d="M-386.264,1134.653c0,3.568,3.322,6.463,7.422,6.463h38.043c4.098,0,7.422-2.895,7.422-6.463H-386.264z" fill="#253744"/><rect fill="#F2B643" height="23.189" width="6.055" x="-375.199" y="1117.927"/><rect fill="#D89932" height="6.463" width="6.055" x="-375.199" y="1134.653"/></g><g><g><polygon fill="#C6CBCB" points="615.062,28.912 946.231,448.394 975.669,348.517   "/><polygon fill="#D672AD" points="846.532,234.063 823.799,293.312 946.231,448.394 975.669,348.517   "/><polygon fill="#D1D5D5" points="946.231,448.394 915.743,373.749 615.062,28.912 882.101,395.827   "/><polygon fill="#E2E5E7" points="915.743,373.749 743.324,483.087 615.062,28.912   "/><polygon fill="#E2E5E7" points="975.669,348.517 615.062,28.912 1127.062,282.282   "/><polygon fill="#EA8EBC" points="797.708,238.38 738.815,467.124 743.324,483.087 915.907,373.618   "/><polygon fill="#EA8EBC" points="1105.989,271.856 846.532,234.063 975.544,348.94 1127.062,282.282   "/><polygon fill="#D672AD" points="797.708,238.38 738.815,467.124 806.363,248.283   "/><polygon fill="#D672AD" points="846.532,234.063 858.038,244.308 1105.989,271.856   "/><polygon fill="#C6CBCB" points="915.907,373.618 881.72,395.304 907.883,416.96   "/></g><polygon fill="#EA8EBC" points="627.776,73.934 638.068,55.296 615.062,28.912  "/><polygon fill="#EA8EBC" points="642.972,53.648 666.203,54.22 615.062,28.912  "/></g><g><circle cx="256" cy="885.114" fill="#2D404E" r="256"/><path d="M512,885.114c0-51.363-15.124-99.191-41.165-139.275c0,0-14.604,21.334-11.86,35.047   c2.742,13.715,18.855,14.762,17.2,24.822s-13.541-2.879-28.172,23.633c-14.63,26.514-7.312,63.096,13.714,65.834   C482.744,897.911,512,885.114,512,885.114z" fill="#48B19B"/><path d="M323.23,638.034c29.797,8.088,57.434,21.424,81.857,38.951c0,0-29.684-4.896-40.929,5.158   c-11.244,10.057-27.643,33.832-40.929,0C309.945,648.313,323.23,638.034,323.23,638.034z" fill="#48B19B"/><path d="M63.519,716.333c46.918-53.465,115.756-87.219,192.481-87.219c0,0-17.368,10.516,15.546,28.344   c32.915,17.83,17.828,26.057,10.971,31.543c-6.856,5.486-18.749-10.971-26.517-21.941c-7.769-10.973-41.132-27.885-66.734-18.74   c-25.601,9.145-47.539,15.9-43.885,24.408c3.653,8.506,47.539-7.945,63.996-7.035c16.457,0.912,10.971,10.967-4.569,22.854   c-15.542,11.887-17.374,26.514-0.916,35.656c16.456,9.146,36.566,10.061,41.143,4.576c4.574-5.486-8.229-41.143,22.858-25.602   s56.688,24.691,31.087,47.545c-25.602,22.852-54.857,48.461-55.773,63.084c-0.916,14.625,9.146,26.52,3.66,27.43   c-5.486,0.91-10.521-5.941-14.176-10.973c-3.653-5.029-20.571-6.855-28.799-3.658c-8.229,3.197-23.774,15.541-15.086,27.428   c8.689,11.889,20.565,6.396,32.454,11.883c11.887,5.486,22.972,26.365,20.696,31.084c-2.276,4.717-12.409-1.256-20.696-17.369   c-8.289-16.115-23.835-5.486-34.773-8.229c-10.939-2.742-19.168-4.57-30.14-23.771c-10.972-19.199-33.687-24.572-42.969-35.656   c-26.589-31.75-24.687-55.771-30.172-66.742C77.72,734.259,63.519,716.333,63.519,716.333z" fill="#48B19B"/><path d="M280.685,888.772c0,0,27.429,2.738,41.143,14.627c13.714,11.887,15.546,16.461,36.573,21.031   c21.027,4.568,30.172,16.451,16.457,39.311c-13.714,22.857-38.404,59.43-50.287,70.402c-11.882,10.973-26.512,20.115-31.998,38.4   c-5.485,18.283-7.317,29.248,4.57,36.568c0,0-6.396,15.545-21.026-4.57c-14.631-20.117-2.744-43.885,0-57.6   c2.742-13.713,10.055-54.852,5.484-64.914c-4.568-10.059-25.601-16.461-31.087-37.486   C245.028,923.515,254.629,882.597,280.685,888.772z" fill="#48B19B"/><path d="M74.98,704.097c99.975-99.977,262.062-99.975,362.038,0   c99.976,99.973,99.976,262.062,0.001,362.037c0,0,116.148-153.59-48.293-318.031C224.284,583.661,74.98,704.097,74.98,704.097z" fill="#253744" opacity="0.6"/></g><g><path d="M1127.062,1020.907c0,7.145-5.79,12.936-12.937,12.936H627.998c-7.146,0-12.937-5.791-12.937-12.936   V694.052c0-7.143,5.791-12.938,12.937-12.938h486.127c7.146,0,12.937,5.795,12.937,12.938V1020.907z" fill="#E2E5E7"/><path d="M929.13,1033.843h-58.068h-58.069c0,0-2.353,38.809-7.057,47.041h65.126h65.125   C931.482,1072.651,929.13,1033.843,929.13,1033.843z" fill="#D1D5D5"/><path d="M947.063,1084.118c-7.057-0.883-10.877-3.234-10.877-3.234h-65.125h-65.126c0,0-3.82,2.352-10.877,3.234   c-7.055,0.883-11.76,1.469-11.76,4.998h87.763h87.762C958.823,1085.587,954.119,1085.001,947.063,1084.118z" fill="#C6CBCB"/><path d="M1114.125,681.114H627.998c-7.146,0-12.937,5.795-12.937,12.938v293.535h512V694.052   C1127.062,686.909,1121.271,681.114,1114.125,681.114z M1105.872,969.202H848.926H636.251V699.503h377.583h92.038V969.202z" fill="#2D404E"/><polygon fill="#DF584C" points="636.251,699.503 636.251,969.202 848.926,969.202 1105.872,969.202 1105.872,699.503    1013.834,699.503  "/><path d="M929.13,1033.843h-58.068h-58.069c0,0-0.351,5.773-1.05,13.33H930.18   C929.48,1039.616,929.13,1033.843,929.13,1033.843z" fill="#C6CBCB"/><circle cx="871.128" cy="1011.802" fill="#2D404E" r="8.412"/><g><path d="M946.938,878.36c0,4.654-3.729,8.428-8.328,8.428H803.513c-4.599,0-8.328-3.773-8.328-8.428v-88.016    c0-4.654,3.729-8.428,8.328-8.428H938.61c4.6,0,8.328,3.773,8.328,8.428V878.36z" fill="#E2E5E7"/><path d="M798.804,885.312c-0.836-0.582-1.562-1.312-2.14-2.156l59.823-40.396l1.852,1.85L798.804,885.312z" fill="#D1D5D5"/><path d="M943.37,885.312c0.836-0.582,1.562-1.312,2.141-2.156l-59.824-40.396l-1.851,1.85L943.37,885.312z" fill="#D1D5D5"/><path d="M795.557,787.853c1.05-3.438,4.215-5.936,7.956-5.936H938.61c3.449,0,6.408,2.123,7.673,5.146    c0.13,0.312,0.242,0.633,0.335,0.961l-53.889,54.734c0,0-11.567,14.727-21.643,14.727c-9.587,0-21.385-14.727-21.385-14.727    L795.557,787.853z" fill="#C6CBCB"/><path d="M795.557,787.853c1.05-3.438,4.215-5.936,7.956-5.936H938.61c3.449,0,6.408,2.123,7.673,5.146    c0.13,0.312,0.242,0.633,0.335,0.961l-58.053,54.734c0,0-9.254,8.25-17.479,8.25c-8.431,0-17.684-8.25-17.684-8.25    L795.557,787.853z" fill="#E2E5E7"/></g><path d="M1114.125,681.114h-89.058L837.689,987.587h289.372V694.052   C1127.062,686.909,1121.271,681.114,1114.125,681.114z" fill="#E2E5E7" opacity="0.16"/></g></svg>